<svg width="37" height="34" viewBox="0 0 37 34" fill="none" xmlns="http://www.w3.org/2000/svg">
<path fill-rule="evenodd" clip-rule="evenodd" d="M36.2029 6.64258C36.2029 5.55212 35.7639 4.50629 34.9824 3.73523C34.2012 2.96414 33.1414 2.53094 32.0361 2.53094H27.9346V0.913696C27.9346 0.671356 27.8369 0.438965 27.6633 0.267609C27.4897 0.0962524 27.2542 0 27.0085 0C26.7629 0 26.5276 0.0962524 26.3538 0.267609C26.1802 0.438965 26.0828 0.671356 26.0828 0.913696V2.53094H10.1201V0.913696C10.1201 0.671356 10.0225 0.438965 9.84888 0.267609C9.67529 0.0962524 9.4397 0 9.19434 0C8.94873 0 8.71313 0.0962524 8.53955 0.267609C8.36597 0.438965 8.26831 0.671356 8.26831 0.913696V2.53094H4.1665C3.06152 2.53094 2.00171 2.96414 1.22046 3.73523C0.438965 4.50629 0 5.55212 0 6.64258V29.412C0 30.5024 0.438965 31.5482 1.22046 32.3193C2.00171 33.0904 3.06152 33.5236 4.1665 33.5236H32.0361C33.1414 33.5236 34.2012 33.0904 34.9824 32.3193C35.7639 31.5482 36.2029 30.5024 36.2029 29.412V6.64258ZM34.3511 29.4165C34.3511 29.7165 34.291 30.0135 34.1748 30.2906C34.0583 30.5678 33.8879 30.8196 33.6731 31.0317C33.458 31.2438 33.2029 31.4121 32.9221 31.5269C32.6411 31.6417 32.3403 31.7008 32.0361 31.7008H4.1665C3.86255 31.7008 3.56152 31.6417 3.28076 31.5269C3 31.4121 2.74463 31.2438 2.52979 31.0317C2.31494 30.8196 2.14429 30.5678 2.02808 30.2906C1.91162 30.0135 1.85181 29.7165 1.85181 29.4165V13.541H34.3511V29.4165ZM34.3511 11.7182H1.85181V6.64258C1.85181 6.03677 2.0957 5.45575 2.52979 5.02737C2.96387 4.599 3.55273 4.35834 4.1665 4.35834H8.27295V6.88928C8.27295 7.13162 8.37061 7.36401 8.54419 7.53537C8.71777 7.70673 8.95337 7.80298 9.19873 7.80298C9.44434 7.80298 9.67993 7.70673 9.85352 7.53537C10.0271 7.36401 10.1248 7.13162 10.1248 6.88928V4.35834H26.0828V6.88928C26.0828 7.13162 26.1802 7.36401 26.3538 7.53537C26.5276 7.70673 26.7629 7.80298 27.0085 7.80298C27.2542 7.80298 27.4897 7.70673 27.6633 7.53537C27.8369 7.36401 27.9346 7.13162 27.9346 6.88928V4.35834H32.0361C32.6501 4.35834 33.239 4.599 33.6731 5.02737C34.1072 5.45575 34.3511 6.03677 34.3511 6.64258V11.7182ZM11.1619 16.3049H11.1572C10.1267 16.3049 9.2915 17.1292 9.2915 18.146V18.1506C9.2915 19.1674 10.1267 19.9917 11.1572 19.9917H11.1619C12.1921 19.9917 13.0273 19.1674 13.0273 18.1506V18.146C13.0273 17.1292 12.1921 16.3049 11.1619 16.3049ZM15.7866 16.3049H15.7913C16.8215 16.3049 17.657 17.1292 17.657 18.146V18.1506C17.657 19.1674 16.8215 19.9917 15.7913 19.9917H15.7866C14.7563 19.9917 13.9209 19.1674 13.9209 18.1506V18.146C13.9209 17.1292 14.7563 16.3049 15.7866 16.3049ZM20.4207 16.3049H20.416C19.3857 16.3049 18.5503 17.1292 18.5503 18.146V18.1506C18.5503 19.1674 19.3857 19.9917 20.416 19.9917H20.4207C21.4512 19.9917 22.2864 19.1674 22.2864 18.1506V18.146C22.2864 17.1292 21.4512 16.3049 20.4207 16.3049ZM25.0457 16.3049H25.0503C26.0806 16.3049 26.916 17.1292 26.916 18.146V18.1506C26.916 19.1674 26.0806 19.9917 25.0503 19.9917H25.0457C24.0151 19.9917 23.1799 19.1674 23.1799 18.1506V18.146C23.1799 17.1292 24.0151 16.3049 25.0457 16.3049ZM29.6799 16.3049H29.6753C28.6448 16.3049 27.8096 17.1292 27.8096 18.146V18.1506C27.8096 19.1674 28.6448 19.9917 29.6753 19.9917H29.6799C30.7102 19.9917 31.5454 19.1674 31.5454 18.1506V18.146C31.5454 17.1292 30.7102 16.3049 29.6799 16.3049ZM6.52759 20.8734H6.53223C7.5625 20.8734 8.39795 21.6977 8.39795 22.7145V22.7191C8.39795 23.7359 7.5625 24.5602 6.53223 24.5602H6.52759C5.49707 24.5602 4.66187 23.7359 4.66187 22.7191V22.7145C4.66187 21.6977 5.49707 20.8734 6.52759 20.8734ZM11.1619 20.8734H11.1572C10.1267 20.8734 9.2915 21.6977 9.2915 22.7145V22.7191C9.2915 23.7359 10.1267 24.5602 11.1572 24.5602H11.1619C12.1921 24.5602 13.0273 23.7359 13.0273 22.7191V22.7145C13.0273 21.6977 12.1921 20.8734 11.1619 20.8734ZM15.7866 20.8734H15.7913C16.8215 20.8734 17.657 21.6977 17.657 22.7145V22.7191C17.657 23.7359 16.8215 24.5602 15.7913 24.5602H15.7866C14.7563 24.5602 13.9209 23.7359 13.9209 22.7191V22.7145C13.9209 21.6977 14.7563 20.8734 15.7866 20.8734ZM20.4207 20.8734H20.416C19.3857 20.8734 18.5503 21.6977 18.5503 22.7145V22.7191C18.5503 23.7359 19.3857 24.5602 20.416 24.5602H20.4207C21.4512 24.5602 22.2864 23.7359 22.2864 22.7191V22.7145C22.2864 21.6977 21.4512 20.8734 20.4207 20.8734ZM25.0457 20.8734H25.0503C26.0806 20.8734 26.916 21.6977 26.916 22.7145V22.7191C26.916 23.7359 26.0806 24.5602 25.0503 24.5602H25.0457C24.0151 24.5602 23.1799 23.7359 23.1799 22.7191V22.7145C23.1799 21.6977 24.0151 20.8734 25.0457 20.8734ZM29.6799 20.8734H29.6753C28.6448 20.8734 27.8096 21.6977 27.8096 22.7145V22.7191C27.8096 23.7359 28.6448 24.5602 29.6753 24.5602H29.6799C30.7102 24.5602 31.5454 23.7359 31.5454 22.7191V22.7145C31.5454 21.6977 30.7102 20.8734 29.6799 20.8734ZM6.52759 25.4419H6.53223C7.5625 25.4419 8.39795 26.2662 8.39795 27.283V27.2876C8.39795 28.3044 7.5625 29.1287 6.53223 29.1287H6.52759C5.49707 29.1287 4.66187 28.3044 4.66187 27.2876V27.283C4.66187 26.2662 5.49707 25.4419 6.52759 25.4419ZM11.1619 25.4419H11.1572C10.1267 25.4419 9.2915 26.2662 9.2915 27.283V27.2876C9.2915 28.3044 10.1267 29.1287 11.1572 29.1287H11.1619C12.1921 29.1287 13.0273 28.3044 13.0273 27.2876V27.283C13.0273 26.2662 12.1921 25.4419 11.1619 25.4419ZM15.7866 25.4419H15.7913C16.8215 25.4419 17.657 26.2662 17.657 27.283V27.2876C17.657 28.3044 16.8215 29.1287 15.7913 29.1287H15.7866C14.7563 29.1287 13.9209 28.3044 13.9209 27.2876V27.283C13.9209 26.2662 14.7563 25.4419 15.7866 25.4419ZM20.4207 25.4419H20.416C19.3857 25.4419 18.5503 26.2662 18.5503 27.283V27.2876C18.5503 28.3044 19.3857 29.1287 20.416 29.1287H20.4207C21.4512 29.1287 22.2864 28.3044 22.2864 27.2876V27.283C22.2864 26.2662 21.4512 25.4419 20.4207 25.4419ZM25.0457 25.4419H25.0503C26.0806 25.4419 26.916 26.2662 26.916 27.283V27.2876C26.916 28.3044 26.0806 29.1287 25.0503 29.1287H25.0457C24.0151 29.1287 23.1799 28.3044 23.1799 27.2876V27.283C23.1799 26.2662 24.0151 25.4419 25.0457 25.4419Z" fill="white"/>
</svg>
