<svg width="34" height="34" viewBox="0 0 34 34" fill="none" xmlns="http://www.w3.org/2000/svg">
<path d="M4.33182 0H29.4071C31.7894 0 33.7369 1.95594 33.7369 4.34768V29.5226C33.7369 31.9137 31.7894 33.8683 29.4071 33.8683H4.33182C1.94954 33.8683 0 31.9136 0 29.5226V4.34768C0 1.95594 1.94954 0 4.33182 0ZM24.5769 3.7616C23.7404 3.7616 23.0582 4.44929 23.0582 5.28861V8.93697C23.0582 9.77663 23.7404 10.4627 24.5769 10.4627H28.3895C29.2246 10.4627 29.9083 9.77663 29.9083 8.93697V5.28861C29.9083 4.44929 29.2246 3.7616 28.3895 3.7616H24.5769ZM29.9228 14.3225H26.9544C27.2359 15.2454 27.3885 16.2188 27.3885 17.2307C27.3885 22.8626 22.6917 27.4304 16.9002 27.4304C11.1101 27.4304 6.41316 22.8626 6.41316 17.2307C6.41316 16.2188 6.56722 15.2454 6.84735 14.3225H3.75042V28.6309C3.75042 29.3719 4.35307 29.9747 5.09045 29.9747H28.5834C29.3214 29.9747 29.9228 29.3719 29.9228 28.6309V14.3225ZM16.9003 10.2704C13.16 10.2704 10.1259 13.2203 10.1259 16.8626C10.1259 20.5011 13.16 23.4533 16.9003 23.4533C20.6426 23.4533 23.6768 20.5011 23.6768 16.8626C23.6768 13.2202 20.6426 10.2704 16.9003 10.2704Z" fill="white"/>
</svg>
