<svg width="28" height="35" viewBox="0 0 28 35" fill="none" xmlns="http://www.w3.org/2000/svg">
<path fill-rule="evenodd" clip-rule="evenodd" d="M4.89219 24.0068L0.0865271 33.7672C-0.0741174 34.0938 -0.00649047 34.4818 0.256449 34.74C0.429301 34.9099 0.662455 35 0.89976 35C1.02329 35 1.14781 34.9755 1.26524 34.9253L7.2855 32.3518L13.3055 34.9253C13.5384 35.0248 13.8043 35.0248 14.0372 34.9253L20.0575 32.3518L26.0775 34.9253C26.4212 35.0721 26.8236 34.9982 27.0865 34.74C27.3495 34.4818 27.4173 34.0936 27.2564 33.7672L22.451 24.0067C22.359 23.8198 22.2003 23.6709 22.0035 23.5869L19.599 22.5594L23.7416 15.8932C23.7513 15.8772 23.7606 15.8609 23.7696 15.8444C24.5921 14.3025 25.0213 12.5656 25.0106 10.8215C24.9928 7.96723 23.8216 5.27094 21.7123 3.22904C19.6029 1.18702 16.8043 0.0406896 13.8321 0.00110831C10.7718 -0.040182 7.88706 1.07347 5.70957 3.13532C3.53184 5.19767 2.33238 7.95075 2.33238 10.8874C2.33238 12.6331 2.7501 14.301 3.57359 15.8445C3.58262 15.861 3.5919 15.8772 3.60191 15.8932L7.74424 22.5595L5.35362 23.5814C5.1544 23.6628 4.98814 23.8121 4.89219 24.0068ZM23.2115 10.8318C23.2206 12.3116 22.8741 13.7248 22.1813 15.0327L14.4439 27.4842C14.2076 27.8643 13.8251 27.9053 13.6715 27.9053C13.5179 27.9053 13.1354 27.8643 12.899 27.4842L5.16172 15.0327C4.47788 13.742 4.1312 12.3476 4.1312 10.8875C4.1312 8.41664 5.14024 6.10035 6.97276 4.36518C8.80454 2.63041 11.2323 1.69493 13.807 1.72816C18.962 1.7967 23.181 5.88056 23.2115 10.8318ZM7.65147 30.6176C7.41856 30.5181 7.15269 30.5181 6.91978 30.6176L2.74961 32.4004L6.37583 25.0351L8.67271 24.0534L11.3546 28.3692C11.846 29.1601 12.7125 29.6324 13.6717 29.6324C14.6312 29.6324 15.4974 29.1601 15.9889 28.3691L18.6708 24.0534L20.9674 25.0347L24.5939 32.4004L20.4234 30.6176C20.1905 30.5181 19.9247 30.5181 19.6918 30.6176L13.6715 33.191L7.65147 30.6176ZM17.7762 10.8873C17.7762 8.71394 15.9347 6.94581 13.6712 6.94581C11.4076 6.94581 9.56626 8.71394 9.56626 10.8873C9.56626 13.0606 11.4076 14.8288 13.6712 14.8287C15.9347 14.8287 17.7762 13.0606 17.7762 10.8873ZM15.9774 10.8873C15.9774 12.1084 14.9427 13.1016 13.6712 13.1016C12.3995 13.1016 11.3651 12.1083 11.3651 10.8873C11.3651 9.6663 12.3995 8.67298 13.6712 8.67298C14.943 8.67298 15.9774 9.6663 15.9774 10.8873Z" fill="white"/>
</svg>
