<svg width="28" height="17" viewBox="0 0 28 17" fill="none" xmlns="http://www.w3.org/2000/svg">
<path fill-rule="evenodd" clip-rule="evenodd" d="M28 1.5C28 2.32843 27.3284 3 26.5 3L1.5 3C0.671573 3 0 2.32843 0 1.5C0 0.671572 0.671573 0 1.5 0L26.5 2.26242e-06C27.3284 2.32967e-06 28 0.671575 28 1.5ZM28 15.5C28 16.3284 27.3284 17 26.5 17L1.5 17C0.671573 17 0 16.3284 0 15.5C0 14.6716 0.671573 14 1.5 14L26.5 14C27.3284 14 28 14.6716 28 15.5ZM26.5 10C27.3284 10 28 9.32843 28 8.5C28 7.67157 27.3284 7 26.5 7L10.1154 7C9.28696 7 8.61539 7.67157 8.61539 8.5C8.61539 9.32843 9.28696 10 10.1154 10L26.5 10Z" fill="white"/>
</svg>
