<svg width="40" height="37" viewBox="0 0 40 37" fill="none" xmlns="http://www.w3.org/2000/svg">
<path d="M39.8572 4.06844C39.7734 3.93382 39.6567 3.82285 39.5183 3.74603C39.3799 3.66921 39.2243 3.62906 39.0661 3.62938H31.4441L31.8675 1.08841C31.89 0.953476 31.8827 0.815229 31.8461 0.683439C31.8095 0.55165 31.7446 0.429534 31.6558 0.325723C31.567 0.221912 31.4566 0.13894 31.3324 0.0826712C31.2082 0.0264025 31.0731 -0.00178936 30.9369 8.79668e-05H9.06645C8.93017 -0.00178936 8.79514 0.0264025 8.67091 0.0826712C8.54668 0.13894 8.43627 0.221912 8.3475 0.325723C8.25873 0.429534 8.19376 0.55165 8.15717 0.683439C8.12059 0.815229 8.11329 0.953476 8.13579 1.08841L8.55924 3.62938H0.93252C0.77436 3.62906 0.618729 3.66921 0.480319 3.74603C0.341908 3.82285 0.225286 3.93381 0.141461 4.06844C0.0576367 4.20307 0.0093756 4.35692 0.00123408 4.51547C-0.00690743 4.67402 0.0253392 4.83203 0.0949299 4.9746L4.12932 13.2981C4.77898 14.6207 5.76374 15.7485 6.98478 16.5683C8.20582 17.3882 9.62019 17.8712 11.086 17.969C11.5209 19.2064 12.2082 20.339 13.104 21.2945C13.9998 22.25 15.0843 23.0073 16.2883 23.5181V27.9461H15.2413C14.0893 27.9461 12.9844 28.4055 12.1698 29.2232C11.3552 30.0409 10.8975 31.15 10.8975 32.3064C10.8975 33.4628 11.3552 34.5719 12.1698 35.3896C12.9844 36.2073 14.0893 36.6667 15.2413 36.6667H24.7806C25.9326 36.6667 27.0375 36.2073 27.8521 35.3896C28.6668 34.5719 29.1244 33.4628 29.1244 32.3064C29.1244 31.15 28.6668 30.0409 27.8521 29.2232C27.0375 28.4055 25.9326 27.9461 24.7806 27.9461H23.7336V23.5181C24.9346 23.0047 26.0158 22.2456 26.9083 21.2894C27.8009 20.3332 28.4851 19.2008 28.9173 17.9644C30.3831 17.8666 31.7975 17.3835 33.0185 16.5636C34.2396 15.7438 35.2243 14.616 35.874 13.2935L39.9084 4.96993C39.9764 4.82757 40.0074 4.67021 39.9985 4.51257C39.9895 4.35492 39.9409 4.20212 39.8572 4.06844ZM5.82311 12.4761L2.44018 5.49774H8.88963L10.6393 16.04C9.6103 15.878 8.63536 15.4696 7.79702 14.8492C6.95867 14.2288 6.28159 13.4148 5.82311 12.4761ZM27.2608 32.3087C27.2595 32.9686 26.9978 33.6011 26.533 34.0678C26.0681 34.5344 25.438 34.7971 24.7806 34.7983H15.2413C14.5829 34.7983 13.9515 34.5358 13.4859 34.0684C13.0204 33.6011 12.7588 32.9673 12.7588 32.3064C12.7588 31.6455 13.0204 31.0117 13.4859 30.5443C13.9515 30.077 14.5829 29.8145 15.2413 29.8145H24.7806C25.4388 29.8157 26.0696 30.079 26.5346 30.5467C26.9996 31.0143 27.2608 31.648 27.2608 32.3087ZM21.8723 27.9461H18.1496V24.1019C19.3779 24.3536 20.6441 24.3536 21.8723 24.1019V27.9461ZM20.011 22.4204C18.2141 22.4253 16.4742 21.7878 15.1031 20.622C13.732 19.4563 12.8193 17.8385 12.5285 16.0586L10.1739 1.86845H29.848L27.4934 16.0586C27.2026 17.8385 26.2899 19.4563 24.9188 20.622C23.5477 21.7878 21.8078 22.4253 20.011 22.4204ZM34.1988 12.4761C33.7397 13.4139 33.0624 14.227 32.2241 14.8466C31.3858 15.4661 30.4112 15.8738 29.3827 16.0353L31.1323 5.49774H37.5817L34.1988 12.4761Z" fill="white"/>
</svg>
