<svg width="35" height="26" fill="none" xmlns="http://www.w3.org/2000/svg"><g filter="url(#filter0_d)"><path d="M30.534 20H4.466A.47.47 0 014 19.526V2.474A.47.47 0 014.466 2h26.069a.47.47 0 01.465.474v17.052a.47.47 0 01-.466.474z" fill="#F5F5F5"/><path d="M31 3.385H4v-.911A.47.47 0 014.466 2h26.069a.47.47 0 01.465.474v.91zm0 4.153H4v1.385h27V7.538zm0-2.768H4v1.384h27V4.769zm0 6.922H4.466A.47.47 0 014 11.22v-.911h27v1.384zm0 4.155H4v1.385h27v-1.385zM30.534 20H4.466A.47.47 0 014 19.526v-.91h27v.91a.47.47 0 01-.466.474zM31 13.077H4v1.384h27v-1.384z" fill="#FF4B55"/><path d="M16.103 2.002H4.466A.47.47 0 004 2.476v8.744a.47.47 0 00.466.474h11.637a.47.47 0 00.466-.474V2.476a.47.47 0 00-.466-.474z" fill="#41479B"/><path d="M5.308 3.087l.103.314.325.003c.042 0 .06.055.026.08l-.262.197.098.316c.013.041-.033.075-.067.05l-.265-.193L5 4.047c-.034.025-.08-.009-.067-.05l.098-.316-.262-.197c-.034-.025-.017-.08.026-.08L5.12 3.4l.103-.314a.044.044 0 01.084 0zm-.001 1.645l.103.314.326.003c.042 0 .06.055.026.08l-.262.197.098.316c.013.041-.033.075-.068.05L5.265 5.5l-.264.193c-.035.025-.08-.009-.068-.05l.098-.316-.262-.197c-.034-.025-.016-.08.026-.08l.326-.003.103-.314c.013-.04.07-.04.083 0zm0 1.644l.103.314.326.003c.042 0 .06.055.026.08L5.5 6.97l.098.316c.013.041-.033.075-.068.05l-.265-.192-.264.192c-.035.025-.08-.009-.068-.05l.098-.316-.262-.196a.045.045 0 01.026-.081l.326-.003.103-.314c.013-.04.07-.04.083 0zm0 1.646l.103.314.326.003c.042 0 .06.055.026.08l-.262.197.098.316c.013.04-.033.075-.068.05l-.265-.193-.264.193c-.035.025-.08-.009-.068-.05l.098-.316-.262-.197c-.034-.025-.016-.08.026-.08l.326-.003.103-.314a.043.043 0 01.083 0zm0 1.644l.103.314.326.003c.042 0 .06.055.026.08l-.262.197.098.316c.013.041-.033.075-.068.05l-.265-.193-.264.193c-.035.025-.08-.009-.068-.05l.098-.316-.262-.197c-.034-.025-.016-.08.026-.08l.326-.003.103-.314a.043.043 0 01.083 0zm1.255-5.773l.103.315.326.002c.042 0 .06.055.025.081l-.262.197.099.316c.012.04-.033.075-.068.05L6.52 4.66l-.265.193c-.034.025-.08-.01-.067-.05l.098-.316-.262-.197c-.034-.026-.016-.08.026-.08l.326-.003.103-.315c.013-.04.07-.04.083 0zm0 1.646l.103.314.326.003c.042 0 .06.055.025.08l-.262.198.099.315c.012.041-.033.075-.068.05l-.265-.192-.265.192c-.034.025-.08-.009-.067-.05l.098-.315-.262-.197a.045.045 0 01.026-.081l.326-.003.103-.314c.013-.04.07-.04.083 0zm0 1.644l.103.315.326.002c.042 0 .06.055.025.08l-.262.198.099.316c.012.04-.033.075-.068.05L6.52 7.95l-.265.193c-.034.024-.08-.01-.067-.05l.098-.316-.262-.197c-.034-.026-.016-.08.026-.08l.326-.003.103-.315c.013-.04.07-.04.083 0zm0 1.646l.103.314.326.003c.042 0 .06.055.025.08l-.262.197.099.316c.012.041-.033.075-.068.05l-.265-.193-.265.193c-.034.025-.08-.009-.067-.05l.098-.316-.262-.197c-.034-.025-.016-.08.026-.08l.326-.003.103-.314a.043.043 0 01.083 0zm1.255-5.743l.103.315.325.002c.043 0 .06.055.026.08l-.262.198.098.316c.013.04-.033.075-.067.05l-.265-.193-.265.193c-.034.024-.08-.01-.067-.05l.098-.316-.262-.197c-.034-.026-.017-.08.026-.08L7.63 3.4l.103-.315c.014-.04.07-.04.084 0zm0 1.646l.103.314.325.003c.043 0 .06.055.026.08l-.262.197.098.316c.013.041-.033.075-.067.05L7.775 5.5l-.265.193c-.034.025-.08-.009-.067-.05l.098-.316-.262-.197c-.034-.025-.017-.08.026-.08l.325-.003.103-.314c.014-.04.07-.04.084 0zm0 1.644l.103.314.325.003c.043 0 .06.055.026.08l-.262.197.098.316c.013.041-.033.075-.067.05l-.265-.193-.265.193c-.034.025-.08-.009-.067-.05l.098-.316-.262-.196a.045.045 0 01.026-.081l.325-.003.103-.314c.014-.04.07-.04.084 0zm0 1.646l.103.314.325.003c.043 0 .06.055.026.08l-.262.197.098.316c.013.04-.033.075-.067.05l-.265-.193-.265.193c-.034.025-.08-.01-.067-.05l.098-.316-.262-.197c-.034-.025-.017-.08.026-.08l.325-.003.103-.314a.044.044 0 01.084 0zm0 1.644l.103.314.325.003c.043 0 .06.055.026.08l-.262.197.098.316c.013.041-.033.075-.067.05l-.265-.193-.265.193c-.034.025-.08-.009-.067-.05l.098-.316-.262-.197c-.034-.025-.017-.08.026-.08l.325-.003.103-.314c.014-.04.07-.04.084 0zm1.254-5.773l.103.315.326.002c.042 0 .06.055.026.081l-.262.197.098.316c.013.04-.033.075-.067.05L9.03 4.66l-.265.193c-.035.025-.08-.01-.068-.05l.099-.316-.262-.197c-.034-.026-.017-.08.025-.08l.326-.003.103-.315c.013-.04.07-.04.083 0zm0 1.646l.103.314.326.003c.042 0 .06.055.026.08l-.262.198.098.315c.013.041-.033.075-.067.05l-.265-.192-.265.192c-.035.025-.08-.009-.068-.05l.099-.315-.262-.197c-.034-.026-.017-.08.025-.081l.326-.003.103-.314c.013-.04.07-.04.083 0zm0 1.644l.103.315.326.002c.042 0 .06.055.026.08l-.262.198.098.316c.013.04-.033.075-.067.05L9.03 7.95l-.265.193c-.035.024-.08-.01-.068-.05l.099-.316-.262-.197c-.034-.026-.017-.08.025-.08l.326-.003.103-.315c.013-.04.07-.04.083 0zm0 1.646l.103.314.326.003c.042 0 .06.055.026.08l-.262.197.098.316c.013.041-.033.075-.067.05l-.265-.193-.265.193c-.035.025-.08-.009-.068-.05l.099-.316-.262-.197c-.034-.025-.017-.08.025-.08l.326-.003.103-.314a.043.043 0 01.083 0zm1.255-5.743l.103.315.326.002c.042 0 .06.055.026.08l-.262.198.098.316c.013.04-.033.075-.067.05l-.266-.193-.264.193c-.035.024-.08-.01-.068-.05l.098-.316-.262-.197c-.034-.026-.016-.08.026-.08l.326-.003.103-.315c.013-.04.07-.04.083 0zm0 1.646l.103.314.326.003c.042 0 .06.055.026.08l-.262.197.098.316c.013.041-.033.075-.067.05l-.266-.193-.264.193c-.035.025-.08-.009-.068-.05l.098-.316-.262-.197c-.034-.025-.016-.08.026-.08l.326-.003.103-.314c.013-.04.07-.04.083 0zm0 1.644l.103.314.326.003c.042 0 .06.055.026.08l-.262.197.098.316c.013.041-.033.075-.067.05l-.266-.193-.264.193c-.035.025-.08-.009-.068-.05l.098-.316-.262-.196a.045.045 0 01.026-.081l.326-.003.103-.314c.013-.04.07-.04.083 0zm0 1.646l.103.314.326.003c.042 0 .06.055.026.08l-.262.197.098.316c.013.04-.033.075-.067.05l-.266-.193-.264.193c-.035.025-.08-.01-.068-.05l.098-.316-.262-.197c-.034-.025-.016-.08.026-.08l.326-.003.103-.314a.043.043 0 01.083 0zm0 1.644l.103.314.326.003c.042 0 .06.055.026.08l-.262.197.098.316c.013.041-.033.075-.067.05l-.266-.193-.264.193c-.035.025-.08-.009-.068-.05l.098-.316-.262-.197c-.034-.025-.016-.08.026-.08l.326-.003.103-.314c.013-.04.07-.04.083 0zm1.254-5.773l.104.315.326.002c.042 0 .06.055.025.081l-.262.197.099.316c.012.04-.034.075-.068.05l-.265-.193-.265.193c-.034.025-.08-.01-.067-.05l.098-.316-.262-.197c-.034-.026-.016-.08.026-.08l.325-.003.104-.315c.013-.04.07-.04.083 0zm0 1.646l.104.314.326.003c.042 0 .06.055.025.08l-.262.198.099.315c.012.041-.034.075-.068.05l-.265-.192-.265.192c-.034.025-.08-.009-.067-.05l.098-.315-.262-.197a.045.045 0 01.026-.081l.325-.003.104-.314c.013-.04.07-.04.083 0zm0 1.644l.104.315.326.002c.042 0 .06.055.025.08l-.262.198.099.316c.012.04-.034.075-.068.05l-.265-.193-.265.193c-.034.024-.08-.01-.067-.05l.098-.316-.262-.197c-.034-.026-.016-.08.026-.08l.325-.003.104-.315c.013-.04.07-.04.083 0zm0 1.646l.104.314.326.003c.042 0 .06.055.025.08l-.262.197.099.316c.012.041-.034.075-.068.05l-.265-.193-.265.193c-.034.025-.08-.009-.067-.05l.098-.316-.262-.197c-.034-.025-.016-.08.026-.08l.325-.003.104-.314a.043.043 0 01.083 0zm1.255-5.743l.103.315.326.002c.042 0 .06.055.026.08l-.262.198.098.316c.013.04-.033.075-.067.05l-.265-.193-.265.193c-.035.024-.08-.01-.068-.05l.098-.316-.262-.197c-.034-.026-.016-.08.026-.08l.326-.003.103-.315c.013-.04.07-.04.083 0zm0 1.646l.103.314.326.003c.042 0 .06.055.026.08l-.262.197.098.316c.013.041-.033.075-.067.05l-.265-.193-.265.193c-.035.025-.08-.009-.068-.05l.098-.316-.262-.197c-.034-.025-.016-.08.026-.08l.326-.003.103-.314c.013-.04.07-.04.083 0zm0 1.644l.103.314.326.003c.042 0 .06.055.026.08l-.262.197.098.316c.013.041-.033.075-.067.05l-.265-.193-.265.193c-.035.025-.08-.009-.068-.05l.098-.316-.262-.196a.045.045 0 01.026-.081l.326-.003.103-.314c.013-.04.07-.04.083 0zm0 1.646l.103.314.326.003c.042 0 .06.055.026.08l-.262.197.098.316c.013.04-.033.075-.067.05l-.265-.193-.265.193c-.035.025-.08-.01-.068-.05l.098-.316-.262-.197c-.034-.025-.016-.08.026-.08l.326-.003.103-.314a.043.043 0 01.083 0zm0 1.644l.103.314.326.003c.042 0 .06.055.026.08l-.262.197.098.316c.013.041-.033.075-.067.05l-.265-.193-.265.193c-.035.025-.08-.009-.068-.05l.098-.316-.262-.197c-.034-.025-.016-.08.026-.08l.326-.003.103-.314c.013-.04.07-.04.083 0zm1.255-5.773l.103.315.326.002c.042 0 .06.055.026.081l-.262.197.098.316c.013.04-.033.075-.068.05l-.265-.193-.264.193c-.035.025-.08-.01-.068-.05l.098-.316-.262-.197c-.034-.026-.016-.08.026-.08l.326-.003.103-.315c.013-.04.07-.04.083 0zm0 1.646l.103.314.326.003c.042 0 .06.055.026.08l-.262.198.098.315c.013.041-.033.075-.068.05l-.265-.192-.264.192c-.035.025-.08-.009-.068-.05l.098-.315-.262-.197a.045.045 0 01.026-.081l.326-.003.103-.314c.013-.04.07-.04.083 0zm0 1.644l.103.315.326.002c.042 0 .06.055.026.08l-.262.198.098.316c.013.04-.033.075-.068.05l-.265-.193-.264.193c-.035.024-.08-.01-.068-.05l.098-.316-.262-.197c-.034-.026-.016-.08.026-.08l.326-.003.103-.315c.013-.04.07-.04.083 0zm0 1.646l.103.314.326.003c.042 0 .06.055.026.08l-.262.197.098.316c.013.041-.033.075-.068.05l-.265-.193-.264.193c-.035.025-.08-.009-.068-.05l.098-.316-.262-.197c-.034-.025-.016-.08.026-.08l.326-.003.103-.314a.043.043 0 01.083 0zm1.255-5.743l.103.315.326.002c.042 0 .06.055.026.08l-.263.198.099.316c.013.04-.033.075-.068.05l-.265-.193-.264.193c-.035.024-.08-.01-.068-.05l.098-.316-.262-.197c-.034-.026-.016-.08.026-.08l.326-.003.103-.315c.013-.04.07-.04.083 0zm0 1.646l.103.314.326.003c.042 0 .06.055.026.08l-.263.197.099.316c.013.041-.033.075-.068.05l-.265-.193-.264.193c-.035.025-.08-.009-.068-.05l.098-.316-.262-.197c-.034-.025-.016-.08.026-.08l.326-.003.103-.314c.013-.04.07-.04.083 0zm0 1.644l.103.314.326.003c.042 0 .06.055.026.08l-.263.197.099.316c.013.041-.033.075-.068.05l-.265-.193-.264.193c-.035.025-.08-.009-.068-.05l.098-.316-.262-.196a.045.045 0 01.026-.081l.326-.003.103-.314c.013-.04.07-.04.083 0zm0 1.646l.103.314.326.003c.042 0 .06.055.026.08l-.263.197.099.316c.013.04-.033.075-.068.05l-.265-.193-.264.193c-.035.025-.08-.01-.068-.05l.098-.316-.262-.197c-.034-.025-.016-.08.026-.08l.326-.003.103-.314a.043.043 0 01.083 0zm0 1.644l.103.314.326.003c.042 0 .06.055.026.08l-.263.197.099.316c.013.041-.033.075-.068.05l-.265-.193-.264.193c-.035.025-.08-.009-.068-.05l.098-.316-.262-.197c-.034-.025-.016-.08.026-.08l.326-.003.103-.314c.013-.04.07-.04.083 0z" fill="#F5F5F5"/></g><defs><filter id="filter0_d" x="0" y="0" width="35" height="26" filterUnits="userSpaceOnUse" color-interpolation-filters="sRGB"><feFlood flood-opacity="0" result="BackgroundImageFix"/><feColorMatrix in="SourceAlpha" values="0 0 0 0 0 0 0 0 0 0 0 0 0 0 0 0 0 0 127 0"/><feOffset dy="2"/><feGaussianBlur stdDeviation="2"/><feColorMatrix values="0 0 0 0 0.00655022 0 0 0 0 0.00655022 0 0 0 0 0.00655022 0 0 0 0.24 0"/><feBlend in2="BackgroundImageFix" result="effect1_dropShadow"/><feBlend in="SourceGraphic" in2="effect1_dropShadow" result="shape"/></filter></defs></svg>